<?xml version="1.0" standalone="no"?>
<!DOCTYPE svg PUBLIC "-//W3C//DTD SVG 20010904//EN"
 "http://www.w3.org/TR/2001/REC-SVG-20010904/DTD/svg10.dtd">
<svg version="1.0" xmlns="http://www.w3.org/2000/svg"
 width="1275.000000pt" height="1651.000000pt" viewBox="0 0 1275.000000 1651.000000"
 preserveAspectRatio="xMidYMid meet">
<metadata>
Created by potrace 1.16, written by Peter Selinger 2001-2019
</metadata>
<g transform="translate(0.000000,1651.000000) scale(0.100000,-0.100000)"
fill="#000000" stroke="none">
<path d="M1581 15239 l-1 -76 37 1 c31 1 39 6 47 28 7 19 6 35 -3 54 -10 22
-16 25 -41 21 -25 -6 -29 -3 -33 21 -2 15 -5 -7 -6 -49z m65 -3 c8 -34 -4 -68
-23 -64 -21 4 -32 38 -22 66 11 29 37 28 45 -2z"/>
<path d="M2331 15239 l-1 -76 37 1 c31 1 39 6 47 28 7 19 6 35 -3 54 -10 22
-16 25 -41 21 -25 -6 -29 -3 -33 21 -2 15 -5 -7 -6 -49z m65 -3 c8 -34 -4 -68
-23 -64 -21 4 -32 38 -22 66 11 29 37 28 45 -2z"/>
<path d="M2740 15300 c0 -5 5 -10 10 -10 6 0 10 5 10 10 0 6 -4 10 -10 10 -5
0 -10 -4 -10 -10z"/>
<path d="M3360 15300 c0 -5 5 -10 10 -10 6 0 10 5 10 10 0 6 -4 10 -10 10 -5
0 -10 -4 -10 -10z"/>
<path d="M4331 15239 l-1 -76 37 1 c31 1 39 6 47 28 7 19 6 35 -3 54 -10 22
-16 25 -41 21 -25 -6 -29 -3 -33 21 -2 15 -5 -7 -6 -49z m65 -3 c8 -34 -4 -68
-23 -64 -21 4 -32 38 -22 66 11 29 37 28 45 -2z"/>
<path d="M1200 15230 c0 -40 4 -70 10 -70 6 0 10 11 10 24 0 38 16 39 44 4 14
-18 28 -29 31 -26 4 4 -5 23 -20 43 l-28 36 22 22 c35 38 24 44 -14 7 l-35
-34 0 32 c0 18 -4 32 -10 32 -6 0 -10 -30 -10 -70z"/>
<path d="M3601 15288 c0 -10 -5 -18 -9 -18 -5 0 -7 -15 -5 -32 9 -72 12 -78
43 -78 17 0 30 4 30 8 0 5 -10 8 -22 8 -20 -1 -23 4 -23 39 0 33 4 40 25 46
l25 7 -27 1 c-16 1 -28 8 -31 19 -4 16 -5 16 -6 0z"/>
<path d="M4601 15288 c0 -10 -5 -18 -9 -18 -5 0 -7 -15 -5 -32 9 -72 12 -78
43 -78 17 0 30 4 30 8 0 5 -10 8 -22 8 -20 -1 -23 4 -23 39 0 33 4 40 25 46
l25 7 -27 1 c-16 1 -28 8 -31 19 -4 16 -5 16 -6 0z"/>
<path d="M4720 15285 c0 -8 -6 -15 -12 -15 -10 0 -10 -2 -1 -8 6 -4 13 -28 15
-52 3 -41 6 -45 31 -48 15 -2 27 1 27 6 0 5 -8 9 -17 8 -14 -1 -19 8 -21 41
-3 37 0 42 20 46 l23 4 -22 2 c-13 0 -23 8 -23 16 0 8 -4 15 -10 15 -5 0 -10
-7 -10 -15z"/>
<path d="M1335 15259 c-4 -6 -4 -13 0 -17 3 -3 10 0 15 7 8 14 40 9 40 -7 0
-4 -15 -12 -32 -17 -26 -8 -33 -15 -33 -35 0 -24 3 -25 55 -26 30 -1 49 1 43
3 -7 3 -13 20 -13 38 0 18 -3 40 -6 49 -7 18 -59 22 -69 5z m55 -58 c0 -14
-28 -33 -40 -26 -20 12 -10 35 15 35 14 0 25 -4 25 -9z"/>
<path d="M1710 15256 c-15 -19 -7 -20 20 -3 17 10 22 9 30 -3 5 -8 6 -16 2
-17 -4 -1 -19 -4 -34 -7 -22 -5 -28 -12 -28 -32 0 -29 25 -42 51 -25 12 7 19
7 19 1 0 -5 7 -10 16 -10 12 0 14 3 6 13 -6 7 -12 30 -14 52 -3 35 -7 40 -29
43 -14 2 -31 -4 -39 -12z m50 -66 c-6 -11 -17 -20 -25 -20 -8 0 -15 9 -15 20
0 15 7 20 25 20 23 0 24 -2 15 -20z"/>
<path d="M1834 15254 c3 -9 6 -33 6 -55 0 -21 5 -39 10 -39 6 0 10 18 10 40 0
28 5 42 19 49 10 6 21 7 25 4 3 -3 6 -1 6 5 0 16 -33 15 -48 0 -9 -9 -12 -9
-12 0 0 7 -5 12 -11 12 -6 0 -8 -7 -5 -16z"/>
<path d="M1960 15256 c-15 -19 -7 -20 20 -3 17 10 22 9 30 -3 5 -8 6 -16 2
-17 -4 -1 -19 -4 -34 -7 -22 -5 -28 -12 -28 -32 0 -29 25 -42 51 -25 12 7 19
7 19 1 0 -5 7 -10 16 -10 12 0 14 3 6 13 -6 7 -12 30 -14 52 -3 35 -7 40 -29
43 -14 2 -31 -4 -39 -12z m50 -66 c-6 -11 -17 -20 -25 -20 -8 0 -15 9 -15 20
0 15 7 20 25 20 23 0 24 -2 15 -20z"/>
<path d="M2081 15210 l2 -55 6 43 c4 23 13 48 19 54 18 18 40 -8 45 -55 3 -31
4 -27 3 13 l-1 55 -37 0 -38 1 1 -56z"/>
<path d="M2460 15256 c-15 -19 -7 -20 20 -3 17 10 22 9 30 -3 5 -8 6 -16 2
-17 -4 -1 -19 -4 -34 -7 -22 -5 -28 -12 -28 -32 0 -29 25 -42 51 -25 12 7 19
7 19 1 0 -5 7 -10 16 -10 12 0 14 3 6 13 -6 7 -12 30 -14 52 -3 35 -7 40 -29
43 -14 2 -31 -4 -39 -12z m50 -66 c-6 -11 -17 -20 -25 -20 -8 0 -15 9 -15 20
0 15 7 20 25 20 23 0 24 -2 15 -20z"/>
<path d="M2584 15254 c3 -9 6 -33 6 -55 0 -21 5 -39 10 -39 6 0 10 18 10 40 0
28 5 42 19 49 10 6 21 7 25 4 3 -3 6 -1 6 5 0 16 -33 15 -48 0 -9 -9 -12 -9
-12 0 0 7 -5 12 -11 12 -6 0 -8 -7 -5 -16z"/>
<path d="M2723 15263 c13 -3 17 -15 17 -48 0 -37 -3 -44 -22 -48 -13 -2 2 -4
32 -4 30 0 45 2 33 4 -20 4 -23 11 -23 54 0 47 -1 49 -27 48 -17 -1 -21 -3
-10 -6z"/>
<path d="M2978 15263 c17 -2 32 -7 32 -11 -1 -4 -14 -23 -30 -42 -17 -19 -30
-38 -30 -42 0 -4 21 -7 48 -7 l47 2 -38 6 -38 6 35 42 c20 22 36 44 36 47 0 3
-21 5 -47 4 -37 -1 -40 -2 -15 -5z"/>
<path d="M3085 15259 c-4 -6 -4 -13 0 -17 3 -3 10 0 15 7 8 14 40 9 40 -7 0
-4 -15 -12 -32 -17 -26 -8 -33 -15 -33 -35 0 -24 3 -25 55 -26 30 -1 49 1 43
3 -7 3 -13 20 -13 38 0 18 -3 40 -6 49 -7 18 -59 22 -69 5z m55 -58 c0 -14
-28 -33 -40 -26 -20 12 -10 35 15 35 14 0 25 -4 25 -9z"/>
<path d="M3190 15253 c0 -44 14 -93 25 -93 7 0 16 15 20 33 l7 32 11 -32 c5
-18 15 -33 22 -33 11 0 25 50 25 93 0 35 -20 5 -21 -31 l-1 -37 -11 28 c-6 15
-16 27 -22 27 -6 0 -16 -12 -22 -27 l-11 -28 -1 37 c-1 36 -21 66 -21 31z"/>
<path d="M3343 15263 c13 -3 17 -15 17 -48 0 -37 -3 -44 -22 -48 -13 -2 2 -5
32 -5 42 -1 50 1 33 8 -19 8 -23 17 -23 55 0 43 -1 45 -27 44 -17 -1 -21 -3
-10 -6z"/>
<path d="M3710 15256 c-15 -19 -7 -20 20 -3 17 10 22 9 30 -3 5 -8 6 -16 2
-17 -4 -1 -19 -4 -34 -7 -22 -5 -28 -12 -28 -32 0 -29 25 -42 51 -25 12 7 19
7 19 1 0 -5 7 -10 16 -10 12 0 14 3 6 13 -6 7 -12 30 -14 52 -3 35 -7 40 -29
43 -14 2 -31 -4 -39 -12z m50 -66 c-6 -11 -17 -20 -25 -20 -8 0 -15 9 -15 20
0 15 7 20 25 20 23 0 24 -2 15 -20z"/>
<path d="M3834 15254 c3 -9 6 -33 6 -55 0 -21 5 -39 10 -39 6 0 10 18 10 40 0
28 5 42 19 49 10 6 21 7 25 4 3 -3 6 -1 6 5 0 16 -33 15 -48 0 -9 -9 -12 -9
-12 0 0 7 -5 12 -11 12 -6 0 -8 -7 -5 -16z"/>
<path d="M3960 15215 c0 -65 16 -74 22 -12 5 46 1 67 -13 67 -5 0 -9 -25 -9
-55z"/>
<path d="M3990 15261 c0 -5 11 -8 25 -8 14 0 25 3 25 8 0 5 -11 9 -25 9 -14 0
-25 -4 -25 -9z"/>
<path d="M4210 15256 c-15 -19 -7 -20 20 -3 17 10 22 9 30 -3 5 -8 6 -16 2
-17 -4 -1 -19 -4 -34 -7 -22 -5 -28 -12 -28 -32 0 -29 25 -42 51 -25 12 7 19
7 19 1 0 -5 7 -10 16 -10 12 0 14 3 6 13 -6 7 -12 30 -14 52 -3 35 -7 40 -29
43 -14 2 -31 -4 -39 -12z m50 -66 c-6 -11 -17 -20 -25 -20 -8 0 -15 9 -15 20
0 15 7 20 25 20 23 0 24 -2 15 -20z"/>
<path d="M4462 15258 c-7 -7 -12 -26 -12 -43 0 -36 15 -55 45 -55 25 0 52 16
42 26 -3 4 -13 1 -22 -6 -18 -15 -45 -6 -45 15 0 11 10 15 35 15 27 0 35 4 35
18 0 24 -19 42 -45 42 -12 0 -26 -5 -33 -12z m56 -15 c2 -8 -6 -13 -22 -13
-25 0 -33 10 -19 24 10 10 36 3 41 -11z"/>
</g>
</svg>
